<?xml version="1.0" encoding="utf-8"?>
<!-- Generator: Adobe Illustrator 27.5.0, SVG Export Plug-In . SVG Version: 6.00 Build 0)  -->
<svg version="1.0" id="Layer_1" xmlns="http://www.w3.org/2000/svg" xmlns:xlink="http://www.w3.org/1999/xlink" x="0px" y="0px"
	 width="1600px" height="1500px" viewBox="0 0 1600 1500" style="enable-background:new 0 0 1600 1500;" xml:space="preserve">
<style type="text/css">
	.st0{fill:#ABCAE4;}
	.st1{fill:none;stroke:#3E8AC9;stroke-width:12.0749;stroke-linecap:round;stroke-miterlimit:10;stroke-dasharray:47.9479,47.9479;}
	.st2{fill:#FFFFFF;}
	.st3{fill:none;stroke:#3E8AC9;stroke-width:11.7284;stroke-linecap:round;stroke-miterlimit:10;stroke-dasharray:30.0311,30.0311;}
	.st4{fill:#3E8AC9;}
	.st5{fill:#FFFFFF;stroke:#3E8AC9;stroke-width:13.5942;stroke-linecap:round;stroke-linejoin:round;stroke-miterlimit:125;}
	.st6{fill:none;stroke:#ABCAE4;stroke-width:13.5942;stroke-linejoin:round;stroke-miterlimit:125;}
	.st7{fill:none;stroke:#ABCAE4;stroke-width:13.5942;stroke-linecap:round;stroke-linejoin:round;stroke-miterlimit:125;}
	.st8{fill:none;stroke:#3E8AC9;stroke-width:8;stroke-miterlimit:10;}
	.st9{fill:#ABCAE4;stroke:#ABCAE4;stroke-width:1.008;stroke-miterlimit:10;}
	.st10{fill:#ABCAE4;stroke:#ABCAE4;stroke-width:0.9837;stroke-miterlimit:10;}
	.st11{fill:#3E8AC9;stroke:#3E8AC9;stroke-width:1.0336;stroke-miterlimit:10;}
	.st12{fill:#ABCAE4;stroke:#3E8AC9;stroke-width:10.3359;stroke-miterlimit:10;}
	.st13{fill:none;stroke:#3E8AC9;stroke-width:10.3359;stroke-miterlimit:10;}
</style>
<path class="st0" d="M1361.9,1065.8c0,6.1-4.9,11-11,11h-168.2c-6.1,0-11-4.9-11-11v-27.3c0-6.1,4.9-11,11-11h168.2
	c6.1,0,11,4.9,11,11V1065.8z"/>
<g>
	<g>
		<g>
			<path class="st0" d="M1387.5,1315h-1175c-58.7,0-106.2-47.6-106.2-106.2v-169.4c0-58.7,47.6-106.2,106.2-106.2h1175
				c58.7,0,106.2,47.6,106.2,106.2v169.4C1493.7,1267.4,1446.2,1315,1387.5,1315z"/>
			<path class="st1" d="M1387.5,1315h-1175c-58.7,0-106.2-47.6-106.2-106.2v-169.4c0-58.7,47.6-106.2,106.2-106.2h1175
				c58.7,0,106.2,47.6,106.2,106.2v169.4C1493.7,1267.4,1446.2,1315,1387.5,1315z"/>
		</g>
		<g>
			<path class="st2" d="M1362.6,1270.8H793.8c-36.1,0-65.4-29.3-65.4-65.4v-156.6c0-36.1,29.3-65.4,65.4-65.4h568.8
				c36.1,0,65.4,29.3,65.4,65.4v156.6C1428,1241.5,1398.7,1270.8,1362.6,1270.8z"/>
			<path class="st3" d="M1362.6,1270.8H793.8c-36.1,0-65.4-29.3-65.4-65.4v-156.6c0-36.1,29.3-65.4,65.4-65.4h568.8
				c36.1,0,65.4,29.3,65.4,65.4v156.6C1428,1241.5,1398.7,1270.8,1362.6,1270.8z"/>
		</g>
		<g>
			<path class="st4" d="M1350.3,1017.5h-168.2c-11.9,0-21.5,9.7-21.5,21.5v27.3c0,11.9,9.7,21.5,21.5,21.5h168.2
				c11.9,0,21.5-9.7,21.5-21.5v-27.3C1371.9,1027.2,1362.2,1017.5,1350.3,1017.5z M1361.3,1066.4c0,6.1-4.9,11-11,11h-168.2
				c-6.1,0-11-4.9-11-11v-27.3c0-6.1,4.9-11,11-11h168.2c6.1,0,11,4.9,11,11V1066.4z"/>
			<path class="st0" d="M1362,1066.7c0,6.1-4.9,11-11,11h-168.2c-6.1,0-11-4.9-11-11v-27.3c0-6.1,4.9-11,11-11h168.2
				c6.1,0,11,4.9,11,11V1066.7z"/>
			<rect x="1195.8" y="1042.2" class="st4" width="21.1" height="21.1"/>
			<path class="st4" d="M1350.3,1102h-168.2c-11.9,0-21.5,9.7-21.5,21.5v27.3c0,11.9,9.7,21.5,21.5,21.5h77v36.3
				c-4.2,1.8-7.6,5.2-9.4,9.4h-53.4v14.1h53.4c2.7,6.4,9.1,10.9,16.5,10.9s13.7-4.5,16.5-10.9h53.4v-14.1h-53.4
				c-1.8-4.2-5.2-7.6-9.4-9.4v-36.3h77.1c11.9,0,21.5-9.7,21.5-21.5v-27.3C1371.9,1111.7,1362.2,1102,1350.3,1102z M1361.3,1150.9
				c0,6.1-4.9,11-11,11h-168.2c-6.1,0-11-4.9-11-11v-27.3c0-6.1,4.9-11,11-11h168.2c6.1,0,11,4.9,11,11V1150.9z"/>
			<path class="st0" d="M1361.9,1150.8c0,6.1-4.9,11-11,11h-168.2c-6.1,0-11-4.9-11-11v-27.3c0-6.1,4.9-11,11-11h168.2
				c6.1,0,11,4.9,11,11V1150.8z"/>
			<rect x="1195.8" y="1126.7" class="st4" width="21.1" height="21.1"/>
		</g>
		<g>
			<path class="st5" d="M560.9,1153c0,19-7.5,36-19.7,48.3c-12.2,12.2-29.2,19.7-48.3,19.7H357c-37.4,0-68-30.6-68-68
				c0-19,7.5-36,19.7-48.3c12.2-12.2,29.2-19.7,48.3-19.7c0-19,7.5-36,19.7-48.3s29.2-19.7,48.3-19.7c19,0,36,7.5,48.3,19.7
				c12.2,12.2,19.7,29.2,19.7,48.3C530.3,1085,560.9,1115.6,560.9,1153z"/>
			<g>
				<path class="st6" d="M456.9,1173.3h-63.2c-1.4,0-2-0.7-2-2v-49.6c0-1.4,0.7-2,2-2h63.2c1.4,0,2,0.7,2,2v49.6
					C458.9,1172.7,458.2,1173.3,456.9,1173.3z"/>
				<path class="st6" d="M445.3,1119h-40.8c-1.4,0-2-0.7-2-2v-9.5c0-12.2,10.2-22.4,22.4-22.4l0,0c12.2,0,22.4,10.2,22.4,22.4v9.5
					C447.4,1118.3,446.7,1119,445.3,1119z"/>
				<line class="st7" x1="424.9" y1="1146.2" x2="424.9" y2="1146.2"/>
			</g>
		</g>
		<path id="primary" class="st4" d="M925.5,1016.8c-50,0-100.7,15.3-100.7,44.8v134.3c0,29.4,50.7,44.8,100.7,44.8
			c50,0,100.7-15.3,100.7-44.8v-134.3C1026.3,1032.2,975.6,1016.8,925.5,1016.8z"/>
		<path id="secondary" class="st0" d="M925.5,1016.8c-50,0-100.7,15.3-100.7,44.8v67.1c0,29.4,50.7,44.8,100.7,44.8
			c50,0,100.7-15.3,100.7-44.8v-67.1C1026.3,1032.2,975.6,1016.8,925.5,1016.8z"/>
		<ellipse id="primary-2" class="st4" cx="925.5" cy="1061.6" rx="100.7" ry="44.8"/>
		<path class="st8" d="M927.4,1016.5c0,0-0.1,0-0.1,0c-0.9,0-1.7,0-2.6,0s-1.7,0-2.6,0c0,0-0.1,0-0.1,0c-49.1,0.5-98,15.8-98,44.7
			v67.1v67.1c0,29.4,50.7,44.8,100.7,44.8c50,0,100.7-15.3,100.7-44.8v-67.1v-67.1C1025.5,1032.4,976.6,1017.1,927.4,1016.5z"/>
	</g>
	<g>
		<g>
			<g>
				<polygon class="st9" points="829.9,674.6 768.9,716.2 755.1,785.1 820.2,824.1 892.5,791.5 882.9,728.2 				"/>
				<path class="st4" d="M982.3,641.7c0,36.1-27.6,63.8-63.8,63.8c-6.4,0-10.6-4.3-10.6-10.6c0-6.4,4.3-10.6,10.6-10.6
					c23.4,0,42.5-19.1,42.5-42.5c0-23.4-19.1-42.5-42.5-42.5c-2.1,0-6.4,0-8.5,2.1l0,0c-19.1,4.3-34,19.1-34,40.4
					c0,6.4-4.3,10.6-10.6,10.6c-6.4,0-10.6-4.3-10.6-10.6c0-27.6,17-48.9,40.4-59.5c-8.5-38.3-42.5-68-82.9-68
					c-46.8,0-85,38.3-85,85v17c0,4.3-2.1,6.4-6.4,8.5c-4.3,2.1-6.4,2.1-10.6,0c-4.3-2.1-8.5-4.3-14.9-4.3c-17,0-31.9,14.9-31.9,31.9
					c0,17,14.9,31.9,31.9,31.9h21.3c6.4,0,10.6,4.3,10.6,10.6c0,6.4-4.3,10.6-10.6,10.6h-21.3c-29.8,0-53.1-23.4-53.1-53.1
					c0-29.8,23.4-53.1,53.1-53.1c4.3,0,6.4,0,10.6,2.1v-2.1c0-59.5,46.8-106.3,106.3-106.3c51,0,93.5,36.1,104.1,85c0,0,0,0,2.1,0
					c0,0,0,0,2.1,0c0,0,0,0,2.1,0C954.7,578,982.3,607.7,982.3,641.7z M897.3,716.1L897.3,716.1v63.8l0,0v2.1v2.1c0,0,0,2.1-2.1,2.1
					c0,0,0,2.1-2.1,2.1l0,0l-63.8,42.5l0,0l0,0c-4.3,2.1-4.3,2.1-6.4,2.1s-2.1,0-4.3-2.1l0,0l0,0l-63.8-42.5l0,0c0,0-2.1,0-2.1-2.1
					c0,0,0,0-2.1-2.1V782v-2.1l0,0v-63.8l0,0c0,0,0,0,0-2.1l0,0v-2.1l0,0l0,0l0,0c0,0,0-2.1,2.1-2.1l0,0l63.8-42.5l0,0h2.1
					c2.1,0,2.1,0,4.3,0c0,0,0,0,2.1,0s2.1,0,4.3,2.1l0,0l63.8,42.5l0,0c0,0,2.1,0,2.1,2.1l0,0l0,0l0,0v2.1
					C897.3,714,897.3,714,897.3,716.1C897.3,714,897.3,714,897.3,716.1z M778.3,716.1l44.6,29.8l44.6-29.8l-44.6-29.8L778.3,716.1z
					 M769.8,773.5l42.5,27.6v-38.3l-42.5-27.6V773.5z M833.5,803.2l42.5-27.6v-38.3L833.5,765V803.2z"/>
			</g>
			<g>
				<path class="st4" d="M709.2,176v206.2h206.2v-7.3V176H709.2z M900.8,367.7H723.7V220.9h177.1V367.7L900.8,367.7z"/>
				<rect x="740.7" y="243.7" class="st4" width="143.1" height="38.9"/>
				<rect x="828" y="300.8" class="st4" width="55.8" height="47.9"/>
				<rect x="740.7" y="301.6" class="st4" width="65.5" height="7.3"/>
				<rect x="740.7" y="340.7" class="st4" width="65.5" height="7.3"/>
				<rect x="740.7" y="321.1" class="st4" width="65.5" height="7.3"/>
			</g>
		</g>
		<g>
			<path class="st4" d="M684.6,86.5l8.4,33.2l8.9-33.1h8.7l8.6,33.1l8.6-33.1h9.8L725,131.9h-11.2l-7.8-30.1l-7.6,30.1h-11.2
				l-12.6-45.3L684.6,86.5z"/>
			<path class="st4" d="M772.5,86.5v8.4h-20.7V105h16.8v8h-16.8v10.5h21.4v8.4H742V86.5H772.5z"/>
			<path class="st4" d="M796.2,86.5c10.5,0,16.6,4.3,16.6,11.9c0,5.7-3.4,9.1-8.9,10.2c6.4,0.8,10.6,4,10.6,10.5
				c0,7.8-6.2,12.8-17.4,12.8H779V86.5H796.2z M788.7,105.2h7.8c4.1,0,6.6-2.1,6.6-5.5s-2.4-5.5-6.6-5.5h-7.8V105.2z M788.7,124.2
				h8.4c4.7,0,7.3-2.1,7.3-5.6c0-3.7-2.7-5.8-7.3-5.8h-8.4V124.2z"/>
			<path class="st4" d="M828.6,117.1c0.3,4.4,3.8,7.4,9.4,7.4c4.5,0,7.8-1.9,7.8-5.5c0-3.8-3.7-4.6-11.3-6.1
				c-7.6-1.4-14.4-3.9-14.4-13.1c0-8,7.1-13.7,16.9-13.7c10.1,0,17.4,6,17.6,14.2h-9.5c-0.4-3.8-3.4-6.5-8.1-6.5
				c-4.1,0-7.1,1.7-7.1,5.2c0,3.7,3.6,4.5,11.1,5.9c7.8,1.4,14.6,3.8,14.6,12.9c-0.1,8.3-7.5,14.3-17.7,14.3
				c-11,0-18.7-6.5-18.8-15.3L828.6,117.1z"/>
			<path class="st4" d="M871.1,86.5v45.3h-9.7V86.5H871.1z"/>
			<path class="st4" d="M912.2,86.5v8.4h-13.1v37h-9.7v-37h-13.1v-8.4H912.2z"/>
			<path class="st4" d="M947.9,86.5v8.4h-20.7V105h16.8v8h-16.8v10.5h21.4v8.4h-31.2V86.5H947.9z"/>
		</g>
	</g>
	<g>
		<g>
			<g>
				<polygon class="st10" points="1277.4,667.1 1219.3,708.8 1206.1,777.6 1268.2,816.6 1337,784 1327.9,720.7 				"/>
				<path class="st4" d="M1432.3,632.7c0,36.1-27.6,63.8-63.8,63.8c-6.4,0-10.6-4.3-10.6-10.6c0-6.4,4.3-10.6,10.6-10.6
					c23.4,0,42.5-19.1,42.5-42.5c0-23.4-19.1-42.5-42.5-42.5c-2.1,0-6.4,0-8.5,2.1l0,0c-19.1,4.3-34,19.1-34,40.4
					c0,6.4-4.3,10.6-10.6,10.6c-6.4,0-10.6-4.3-10.6-10.6c0-27.6,17-48.9,40.4-59.5c-8.5-38.3-42.5-68-82.9-68
					c-46.8,0-85,38.3-85,85v17c0,4.3-2.1,6.4-6.4,8.5c-4.3,2.1-6.4,2.1-10.6,0s-8.5-4.3-14.9-4.3c-17,0-31.9,14.9-31.9,31.9
					c0,17,14.9,31.9,31.9,31.9h21.3c6.4,0,10.6,4.3,10.6,10.6c0,6.4-4.3,10.6-10.6,10.6h-21.3c-29.8,0-53.1-23.4-53.1-53.1
					c0-29.8,23.4-53.1,53.1-53.1c4.3,0,6.4,0,10.6,2.1v-2.1c0-59.5,46.8-106.3,106.3-106.3c51,0,93.5,36.1,104.1,85c0,0,0,0,2.1,0
					c0,0,0,0,2.1,0c0,0,0,0,2.1,0C1404.7,569,1432.3,598.7,1432.3,632.7z M1347.3,707.1L1347.3,707.1v63.8l0,0v2.1v2.1
					c0,0,0,2.1-2.1,2.1c0,0,0,2.1-2.1,2.1l0,0l-63.8,42.5l0,0l0,0c-4.3,2.1-4.3,2.1-6.4,2.1s-2.1,0-4.3-2.1l0,0l0,0l-63.8-42.5l0,0
					c0,0-2.1,0-2.1-2.1c0,0,0,0-2.1-2.1V773v-2.1l0,0v-63.8l0,0c0,0,0,0,0-2.1l0,0v-2.1l0,0l0,0l0,0c0,0,0-2.1,2.1-2.1l0,0
					l63.8-42.5l0,0h2.1c2.1,0,2.1,0,4.3,0c0,0,0,0,2.1,0s2.1,0,4.3,2.1l0,0l63.8,42.5l0,0c0,0,2.1,0,2.1,2.1l0,0l0,0l0,0v2.1
					C1347.3,705,1347.3,705,1347.3,707.1C1347.3,705,1347.3,705,1347.3,707.1z M1228.3,707.1l44.6,29.8l44.6-29.8l-44.6-29.8
					L1228.3,707.1z M1219.8,764.5l42.5,27.6v-38.3l-42.5-27.6V764.5z M1283.5,794.3l42.5-27.6v-38.3l-42.5,27.6V794.3z"/>
			</g>
			<g>
				<path class="st4" d="M1350.1,198.8c-0.4-3.9-3.6-6.9-7.6-6.9h-160.6v0c-3.9,0.1-7,3.1-7.4,6.9h-0.1v128.6h0.2
					c0.7,3.5,3.7,6,7.3,6.1v0h26.4V349c0,4.3,3.4,7.7,7.7,7.7c2.7,0,5-1.4,6.4-3.4l19.7-19.7h100.4c3.7,0,6.8-2.7,7.5-6.2h0.2
					L1350.1,198.8L1350.1,198.8z M1213,275.8c-7,0-13.2-5.5-13.2-15.1c0-11.1,6.1-21.1,15.3-27.6l0,0c0.2-0.1,0.5-0.2,0.7-0.2
					c0.4,0,0.7,0.1,1,0.4l0,0l6.2,3.9l0,0c0.4,0.3,0.7,0.8,0.7,1.3c0,0.6-0.4,1.2-0.9,1.4l0,0c0,0-0.1,0-0.1,0.1c0,0,0,0,0,0
					c-4.7,2.6-9.7,8.5-11,13.8c0.6-0.3,1.8-0.4,3-0.4c5.6,0,10.1,4.3,10.1,10.7C1224.7,270.5,1219.4,275.8,1213,275.8z
					 M1243.2,275.8c-7,0-13.2-5.5-13.2-15.1c0-11.1,6.1-21.1,15.3-27.6l0,0c0.2-0.1,0.5-0.2,0.7-0.2c0.4,0,0.7,0.1,1,0.4l0,0
					l6.2,3.9l0,0c0.4,0.3,0.7,0.8,0.7,1.3c0,0.6-0.4,1.2-0.9,1.4l0,0c0,0-0.1,0-0.1,0.1c0,0,0,0,0,0c-4.7,2.6-9.7,8.5-11,13.8
					c0.6-0.3,1.8-0.4,3-0.4c5.6,0,10.1,4.3,10.1,10.7C1254.9,270.5,1249.6,275.8,1243.2,275.8z M1279.3,292.2L1279.3,292.2
					c-0.3,0.1-0.5,0.2-0.8,0.2c-0.4,0-0.7-0.1-1-0.4l0,0l-6.2-3.9l0,0c-0.4-0.3-0.7-0.8-0.7-1.3c0-0.6,0.4-1.2,0.9-1.4l0,0
					c0,0,0.1,0,0.1-0.1c0,0,0,0,0,0c4.7-2.6,9.7-8.5,11-13.8c-0.6,0.3-1.8,0.4-3,0.4c-5.6,0-10.1-4.3-10.1-10.7
					c0-6.4,5.3-11.7,11.7-11.7c7,0,13.2,5.5,13.2,15.1C1294.6,275.8,1288.5,285.7,1279.3,292.2z M1309.5,292.2L1309.5,292.2
					c-0.3,0.1-0.5,0.2-0.8,0.2c-0.4,0-0.7-0.1-1-0.4l0,0l-6.2-3.9l0,0c-0.4-0.3-0.7-0.8-0.7-1.3c0-0.6,0.4-1.2,0.9-1.4l0,0
					c0,0,0.1,0,0.1-0.1c0,0,0,0,0,0c4.7-2.6,9.7-8.5,11-13.8c-0.6,0.3-1.8,0.4-3,0.4c-5.6,0-10.1-4.3-10.1-10.7
					c0-6.4,5.3-11.7,11.7-11.7c7,0,13.2,5.5,13.2,15.1C1324.8,275.8,1318.7,285.7,1309.5,292.2z"/>
			</g>
		</g>
		<g>
			<path class="st4" d="M1079.1,118.6c0.3,4.4,3.8,7.4,9.4,7.4c4.5,0,7.8-1.9,7.8-5.5c0-3.8-3.7-4.6-11.3-6.1
				c-7.6-1.4-14.4-3.9-14.4-13.1c0-8,7.1-13.7,16.9-13.7c10.1,0,17.4,6,17.6,14.2h-9.5c-0.4-3.8-3.4-6.5-8.1-6.5
				c-4.1,0-7.1,1.7-7.1,5.2c0,3.7,3.6,4.5,11.1,5.9c7.8,1.4,14.6,3.8,14.6,12.9c-0.1,8.3-7.5,14.3-17.7,14.3
				c-11,0-18.7-6.5-18.8-15.3L1079.1,118.6z"/>
			<path class="st4" d="M1143.1,88v8.4H1130v37h-9.7v-37h-13.1V88H1143.1z"/>
			<path class="st4" d="M1166,133.7c-13.3,0-22.5-9.8-22.5-23.1s9.1-23.1,22.5-23.1c13.3,0,22.5,9.8,22.5,23.1
				S1179.3,133.7,1166,133.7z M1166,125.5c7.6,0,12.5-6.3,12.5-14.8c0-8.5-4.9-14.8-12.5-14.8c-7.6,0-12.6,6.3-12.6,14.8
				C1153.4,119.2,1158.3,125.5,1166,125.5z"/>
			<path class="st4" d="M1212.8,88c10,0,16.6,5.9,16.6,15.1c0,5.8-3,10.5-7.8,12.8l8.9,17.5h-10.8l-7.6-15.2h-8.2v15.2h-9.7V88
				H1212.8z M1204.1,110h8c4.6,0,7.5-2.7,7.5-6.9c0-4.3-2.9-7-7.5-7h-8V110z"/>
			<path class="st4" d="M1240.9,88l10.2,18.6l10.7-18.6h10.8l-16.6,28.5v16.8h-9.7v-16.8L1229.5,88H1240.9z"/>
			<path class="st4" d="M1293.6,88c10.5,0,16.6,4.3,16.6,11.9c0,5.7-3.4,9.1-8.9,10.2c6.4,0.8,10.6,4,10.6,10.5
				c0,7.8-6.2,12.8-17.4,12.8h-18.1V88H1293.6z M1286.1,106.7h7.8c4.1,0,6.6-2.1,6.6-5.5s-2.4-5.5-6.6-5.5h-7.8V106.7z
				 M1286.1,125.7h8.4c4.7,0,7.3-2.1,7.3-5.6c0-3.7-2.7-5.8-7.3-5.8h-8.4V125.7z"/>
			<path class="st4" d="M1338.9,133.7c-13.3,0-22.5-9.8-22.5-23.1s9.1-23.1,22.5-23.1c13.3,0,22.5,9.8,22.5,23.1
				S1352.3,133.7,1338.9,133.7z M1338.9,125.5c7.6,0,12.5-6.3,12.5-14.8c0-8.5-4.9-14.8-12.5-14.8c-7.6,0-12.6,6.3-12.6,14.8
				C1326.4,119.2,1331.3,125.5,1338.9,125.5z"/>
			<path class="st4" d="M1388,133.7c-13.3,0-22.5-9.8-22.5-23.1s9.1-23.1,22.5-23.1c13.3,0,22.5,9.8,22.5,23.1
				S1401.3,133.7,1388,133.7z M1388,125.5c7.6,0,12.5-6.3,12.5-14.8c0-8.5-4.9-14.8-12.5-14.8c-7.6,0-12.6,6.3-12.6,14.8
				C1375.4,119.2,1380.3,125.5,1388,125.5z"/>
			<path class="st4" d="M1426,88.1v20.3l18.1-20.3h11.8l-16.6,18.7l17.7,26.6h-11.7l-13-19.1l-6.4,7.2v11.9h-9.7V88.1H1426z"/>
		</g>
	</g>
	<g>
		<g>
			<g>
				<polygon class="st9" points="365.5,667.2 304.6,708.9 290.7,777.7 355.9,816.7 428.1,784.1 418.6,720.8 				"/>
				<path class="st11" d="M522.4,635.1c0,36.1-27.6,63.8-63.8,63.8c-6.4,0-10.6-4.3-10.6-10.6c0-6.4,4.3-10.6,10.6-10.6
					c23.4,0,42.5-19.1,42.5-42.5c0-23.4-19.1-42.5-42.5-42.5c-2.1,0-6.4,0-8.5,2.1l0,0c-19.1,4.3-34,19.1-34,40.4
					c0,6.4-4.3,10.6-10.6,10.6s-10.6-4.3-10.6-10.6c0-27.6,17-48.9,40.4-59.5c-8.5-38.3-42.5-68-82.9-68c-46.8,0-85,38.3-85,85v17
					c0,4.3-2.1,6.4-6.4,8.5c-4.3,2.1-6.4,2.1-10.6,0c-4.3-2.1-8.5-4.3-14.9-4.3c-17,0-31.9,14.9-31.9,31.9c0,17,14.9,31.9,31.9,31.9
					h21.3c6.4,0,10.6,4.3,10.6,10.6c0,6.4-4.3,10.6-10.6,10.6h-21.3c-29.8,0-53.1-23.4-53.1-53.1c0-29.8,23.4-53.1,53.1-53.1
					c4.3,0,6.4,0,10.6,2.1v-2.1c0-59.5,46.8-106.3,106.3-106.3c51,0,93.5,36.1,104.1,85c0,0,0,0,2.1,0c0,0,0,0,2.1,0c0,0,0,0,2.1,0
					C494.7,571.3,522.4,601,522.4,635.1z M437.3,709.4L437.3,709.4v63.8l0,0v2.1v2.1c0,0,0,2.1-2.1,2.1c0,0,0,2.1-2.1,2.1l0,0
					l-63.8,42.5l0,0l0,0c-4.3,2.1-4.3,2.1-6.4,2.1c-2.1,0-2.1,0-4.3-2.1l0,0l0,0L295,781.7l0,0c0,0-2.1,0-2.1-2.1c0,0,0,0-2.1-2.1
					v-2.1v-2.1l0,0v-63.8l0,0c0,0,0,0,0-2.1l0,0v-2.1l0,0l0,0l0,0c0,0,0-2.1,2.1-2.1l0,0l63.8-42.5l0,0h2.1c2.1,0,2.1,0,4.3,0
					c0,0,0,0,2.1,0s2.1,0,4.3,2.1l0,0l63.8,42.5l0,0c0,0,2.1,0,2.1,2.1l0,0l0,0l0,0v2.1C437.3,707.3,437.3,707.3,437.3,709.4
					C437.3,707.3,437.3,707.3,437.3,709.4z M318.3,709.4l44.6,29.8l44.6-29.8L363,679.7L318.3,709.4z M309.8,766.8l42.5,27.6v-38.3
					l-42.5-27.6V766.8z M373.6,796.6l42.5-27.6v-38.3l-42.5,27.6V796.6z"/>
			</g>
			<g>
				<g>
					<path class="st4" d="M388,332h-13.6l0,0c-2,0-3.6,1.6-3.6,3.6h0v6.3h-85v-98.5h37c2,0,3.6-1.6,3.6-3.6v-37h44.3v25.8h0
						c0.1,1.9,1.7,3.4,3.6,3.4H388c1.9,0,3.5-1.5,3.6-3.4h0v-0.2v0c0,0,0,0,0,0v-34.4h0v-8.4c0-2-1.6-3.6-3.6-3.6h-5.1l0,0h-60l0,0
						h-3.6L265,236.2v5.1v2.1V354v5.1c0,2,1.6,3.6,3.6,3.6h3.3h112.7h3.3c2,0,3.6-1.6,3.6-3.6V354h0v-18.4v0
						C391.6,333.6,390,332,388,332z"/>
				</g>
				<g>
					<path class="st4" d="M438.6,249.4l-24.3-24.3c-1.4-1.4-3.7-1.4-5.1,0l-66.5,66.5l0.1,0.1l-0.2-0.1l-9.1,33.9l0,0
						c-0.4,1.3-0.1,2.7,0.9,3.7c1.1,1.1,2.7,1.3,4.1,0.7l0,0l33.6-9l0-0.1l0,0.1l66.5-66.5C440,253.1,440,250.8,438.6,249.4z
						 M344.6,319l5.4-20.2l14.8,14.8L344.6,319z"/>
				</g>
			</g>
		</g>
		<g>
			<path class="st4" d="M304.8,83.4c10.8,0,18.3,6.7,19.4,16.6h-9.7c-1.1-5.1-4.8-8.4-10.2-8.4c-7.4,0-11.8,6.1-11.8,14.8
				c0,8.7,4.4,14.8,11.8,14.8c5.4,0,9.1-3.3,10.2-8.4h9.7c-1.1,9.8-8.7,16.6-19.4,16.6c-13.7,0-22.2-9.1-22.2-23.1
				S291,83.4,304.8,83.4z"/>
			<path class="st4" d="M342.6,83.8l12.6,33.3l12.2-33.3h12.5v45.3h-9.3V98.7l-11.8,30.4h-7.9l-11.8-30.4v30.4h-9.3V83.8H342.6z"/>
			<path class="st4" d="M395.3,114.3c0.3,4.4,3.8,7.4,9.4,7.4c4.5,0,7.8-1.9,7.8-5.5c0-3.8-3.7-4.6-11.3-6.1
				c-7.6-1.4-14.4-3.9-14.4-13.1c0-8,7.1-13.7,16.9-13.7c10.1,0,17.4,6,17.6,14.2h-9.5c-0.4-3.8-3.4-6.5-8.1-6.5
				c-4.1,0-7.1,1.7-7.1,5.2c0,3.7,3.6,4.5,11.1,5.9c7.8,1.4,14.6,3.8,14.6,12.9c-0.1,8.3-7.5,14.3-17.7,14.3
				c-11,0-18.7-6.5-18.8-15.3L395.3,114.3z"/>
		</g>
	</g>
	<line class="st12" x1="352.3" y1="390.3" x2="352.3" y2="478.7"/>
	<line class="st12" x1="352.3" y1="848.9" x2="352.3" y2="937.4"/>
	<polyline class="st13" points="822.5,858.7 1053.2,855.7 1053.2,983.1 	"/>
	<line class="st12" x1="814.2" y1="390.3" x2="814.2" y2="478.7"/>
	<line class="st12" x1="1256.3" y1="390.3" x2="1256.3" y2="478.7"/>
</g>
<g>
	<path class="st4" d="M537.7,1386.7c10.9,0,18.5,6.7,19.8,16.5h-9.6c-1.2-5-4.9-8.3-10.4-8.3c-7.6,0-12.3,6.1-12.3,14.8
		c0,8.7,4.5,14.8,12.3,14.8c5.2,0,10.4-2.7,11.3-9.1v-0.6h-11.3v-7.7h20.3v25.2H551l-1-5.6c-2.4,3.2-6.8,6-13.2,6
		c-13,0-21.6-9.1-21.6-23.1C515.2,1395.9,523.8,1386.7,537.7,1386.7z"/>
	<path class="st4" d="M586.2,1432.8c-13.3,0-22.5-9.8-22.5-23.1s9.1-23.1,22.5-23.1s22.5,9.8,22.5,23.1S599.6,1432.8,586.2,1432.8z
		 M586.2,1424.6c7.6,0,12.5-6.3,12.5-14.8c0-8.5-4.9-14.8-12.5-14.8c-7.6,0-12.6,6.3-12.6,14.8
		C573.7,1418.3,578.6,1424.6,586.2,1424.6z"/>
	<path class="st4" d="M635.3,1432.8c-13.3,0-22.5-9.8-22.5-23.1s9.1-23.1,22.5-23.1s22.5,9.8,22.5,23.1S648.6,1432.8,635.3,1432.8z
		 M635.3,1424.6c7.6,0,12.5-6.3,12.5-14.8c0-8.5-4.9-14.8-12.5-14.8c-7.6,0-12.6,6.3-12.6,14.8
		C622.7,1418.3,627.6,1424.6,635.3,1424.6z"/>
	<path class="st4" d="M684.3,1386.7c10.9,0,18.5,6.7,19.8,16.5h-9.6c-1.2-5-4.9-8.3-10.4-8.3c-7.6,0-12.3,6.1-12.3,14.8
		c0,8.7,4.5,14.8,12.3,14.8c5.2,0,10.4-2.7,11.3-9.1v-0.6h-11.3v-7.7h20.3v25.2h-6.7l-1-5.6c-2.4,3.2-6.8,6-13.2,6
		c-13,0-21.6-9.1-21.6-23.1C661.8,1395.9,670.4,1386.7,684.3,1386.7z"/>
	<path class="st4" d="M712.1,1387.1h9.7v37h18v8.4h-27.7V1387.1z"/>
	<path class="st4" d="M775.5,1387.1v8.4h-20.7v10.2h16.8v8h-16.8v10.5h21.4v8.4h-31.2v-45.3H775.5z"/>
	<path class="st4" d="M828.1,1387.1v8.4h-20.2v10.6h16.6v8h-16.6v18.4h-9.7v-45.3H828.1z"/>
	<path class="st4" d="M843.1,1387.1v45.3h-9.7v-45.3H843.1z"/>
	<path class="st4" d="M869.3,1387.1c10,0,16.6,5.9,16.6,15.1c0,5.8-3,10.5-7.8,12.8l8.9,17.5h-10.8l-7.6-15.2h-8.2v15.2h-9.7v-45.3
		H869.3z M860.5,1409.1h8c4.6,0,7.5-2.7,7.5-6.9c0-4.3-2.9-7-7.5-7h-8V1409.1z"/>
	<path class="st4" d="M922.8,1387.1v8.4h-20.7v10.2H919v8h-16.8v10.5h21.4v8.4h-31.2v-45.3H922.8z"/>
	<path class="st4" d="M946.6,1387.1c10.5,0,16.6,4.3,16.6,11.9c0,5.7-3.4,9.1-8.9,10.2c6.4,0.8,10.6,4,10.6,10.5
		c0,7.8-6.2,12.8-17.4,12.8h-18.1v-45.3H946.6z M939.1,1405.8h7.8c4.1,0,6.6-2.1,6.6-5.5s-2.4-5.5-6.6-5.5h-7.8V1405.8z
		 M939.1,1424.7h8.4c4.7,0,7.3-2.1,7.3-5.6c0-3.7-2.7-5.8-7.3-5.8h-8.4V1424.7z"/>
	<path class="st4" d="M982.6,1387.1h11.7l16.5,45.3h-10.4l-3.5-9.9h-17.2l-3.5,9.9h-10L982.6,1387.1z M994.2,1414.7l-6-17.2l-6,17.2
		H994.2z"/>
	<path class="st4" d="M1021,1417.7c0.3,4.4,3.8,7.4,9.4,7.4c4.5,0,7.8-1.9,7.8-5.5c0-3.8-3.7-4.6-11.3-6.1
		c-7.6-1.4-14.4-3.9-14.4-13.1c0-8,7.1-13.7,16.9-13.7c10.1,0,17.4,6,17.6,14.2h-9.5c-0.4-3.8-3.4-6.5-8.1-6.5
		c-4.1,0-7.1,1.7-7.1,5.2c0,3.7,3.6,4.5,11.1,5.9c7.8,1.4,14.6,3.8,14.6,12.9c-0.1,8.3-7.5,14.3-17.7,14.3c-11,0-18.7-6.5-18.8-15.3
		L1021,1417.7z"/>
	<path class="st4" d="M1084.2,1387.1v8.4h-20.7v10.2h16.8v8h-16.8v10.5h21.4v8.4h-31.2v-45.3H1084.2z"/>
</g>
</svg>
